<svg width="420" height="223" viewBox="0 0 420 223" fill="none" xmlns="http://www.w3.org/2000/svg">
<path d="M20.1657 219.496C21.1582 219.628 21.4129 219.9 21.4129 220.392V220.436C21.4129 220.892 21.0879 221.244 20.4292 221.244H20.3501C19.6914 221.244 19.3401 220.884 19.3401 220.023H17.9172V220.102C17.9172 221.753 18.7692 222.473 20.3853 222.473C21.9926 222.473 22.8621 221.709 22.8621 220.392V220.304C22.8621 219.03 22.1068 218.521 20.6136 218.319C19.6124 218.187 19.4104 217.924 19.4104 217.423V217.379C19.4104 216.94 19.7441 216.624 20.315 216.624H20.3941C21.1143 216.624 21.3865 217.037 21.3865 217.933H22.8094V217.748C22.8094 216.141 22.0716 215.394 20.3853 215.394C18.8219 215.394 17.9699 216.194 17.9699 217.432V217.529C17.9699 218.767 18.6726 219.294 20.1657 219.496Z" fill="#00335A"/>
<path d="M29.2097 215.509H27.7869V222.359H29.2097V215.509Z" fill="#00335A"/>
<path d="M39.9913 217.977L39.9561 219.347V222.359H41.379V215.509H39.2711L38.0502 219.891L36.8206 215.509H34.7214V222.359H36.1443V219.347L36.1004 217.977L37.3212 222.359H38.7704L39.9913 217.977Z" fill="#00335A"/>
<path d="M48.8721 219.9H49.6977C50.8131 219.9 52.0779 219.619 52.0779 217.792V217.616C52.0779 215.798 50.8131 215.509 49.6977 215.509H47.4492V222.359H48.8721V219.9ZM48.8721 218.67V216.738H49.7592C50.1456 216.738 50.6375 216.887 50.6375 217.66V217.748C50.6375 218.521 50.1456 218.67 49.7592 218.67H48.8721Z" fill="#00335A"/>
<path d="M61.2246 222.359V221.13H58.6951V215.509H57.2722V222.359H61.2246Z" fill="#00335A"/>
<path d="M67.1489 215.509H65.7261V222.359H67.1489V215.509Z" fill="#00335A"/>
<path d="M72.1768 215.509V222.359H73.5996V219.478H75.892V218.249H73.5996V216.738H76.3311V215.509H72.1768Z" fill="#00335A"/>
<path d="M82.3555 215.509H80.9326V222.359H82.3555V215.509Z" fill="#00335A"/>
<path d="M88.7849 219.109V218.758C88.7849 217.388 89.0045 216.624 89.9179 216.624H89.9969C90.7435 216.624 90.9455 217.168 90.9455 218.108H92.3684V217.792C92.3684 216.079 91.5428 215.394 89.9179 215.394C88.1349 215.394 87.3445 216.387 87.3445 218.758V219.109C87.3445 221.481 88.1349 222.473 89.9179 222.473C91.5428 222.473 92.3684 221.788 92.3684 220.102V220.023H90.9455C90.9455 220.761 90.6908 221.244 89.9969 221.244H89.9179C89.0045 221.244 88.7849 220.48 88.7849 219.109Z" fill="#00335A"/>
<path d="M99.129 215.491L97.4163 222.359H98.9445L99.2695 220.884H100.947L101.281 222.359H102.8L101.088 215.491H99.129ZM100.104 217.133L100.666 219.654H99.5418L100.104 217.133Z" fill="#00335A"/>
<path d="M113.787 217.977L113.752 219.347V222.359H115.175V215.509H113.067L111.846 219.891L110.616 215.509H108.517V222.359H109.94V219.347L109.896 217.977L111.117 222.359H112.566L113.787 217.977Z" fill="#00335A"/>
<path d="M123.762 222.473C125.545 222.473 126.379 221.481 126.379 219.109V218.758C126.379 216.387 125.545 215.394 123.762 215.394C121.988 215.394 121.154 216.387 121.154 218.758V219.109C121.154 221.481 121.988 222.473 123.762 222.473ZM123.727 221.244C122.849 221.244 122.594 220.48 122.594 219.109V218.758C122.594 217.388 122.849 216.624 123.727 216.624H123.806C124.684 216.624 124.93 217.388 124.93 218.758V219.109C124.93 220.48 124.684 221.244 123.806 221.244H123.727Z" fill="#00335A"/>
<path d="M134.02 219.496C135.012 219.628 135.267 219.9 135.267 220.392V220.436C135.267 220.892 134.942 221.244 134.283 221.244H134.204C133.546 221.244 133.194 220.884 133.194 220.023H131.771V220.102C131.771 221.753 132.623 222.473 134.24 222.473C135.847 222.473 136.716 221.709 136.716 220.392V220.304C136.716 219.03 135.961 218.521 134.468 218.319C133.467 218.187 133.265 217.924 133.265 217.423V217.379C133.265 216.94 133.598 216.624 134.169 216.624H134.248C134.969 216.624 135.241 217.037 135.241 217.933H136.664V217.748C136.664 216.141 135.926 215.394 134.24 215.394C132.676 215.394 131.824 216.194 131.824 217.432V217.529C131.824 218.767 132.527 219.294 134.02 219.496Z" fill="#00335A"/>
<path d="M149.69 222.473C151.473 222.473 152.307 221.481 152.307 219.109V218.758C152.307 216.387 151.473 215.394 149.69 215.394C147.915 215.394 147.081 216.387 147.081 218.758V219.109C147.081 221.481 147.915 222.473 149.69 222.473ZM149.654 221.244C148.776 221.244 148.521 220.48 148.521 219.109V218.758C148.521 217.388 148.776 216.624 149.654 216.624H149.734C150.612 216.624 150.858 217.388 150.858 218.758V219.109C150.858 220.48 150.612 221.244 149.734 221.244H149.654Z" fill="#00335A"/>
<path d="M164.08 215.491L162.367 222.359H163.895L164.22 220.884H165.898L166.231 222.359H167.751L166.038 215.491H164.08ZM165.055 217.133L165.617 219.654H164.492L165.055 217.133Z" fill="#00335A"/>
<path d="M174.965 216.738H176.554V215.509H171.961V216.738H173.542V222.359H174.965V216.738Z" fill="#00335A"/>
<path d="M181.678 215.509V222.359H185.867V221.13H183.101V219.478H185.428V218.249H183.101V216.738H185.867V215.509H181.678Z" fill="#00335A"/>
<path d="M196.368 215.509H195.016V218.381L195.059 219.76L192.855 215.509H191.353V222.359H192.697V219.487L192.653 218.108L194.866 222.359H196.368V215.509Z" fill="#00335A"/>
<path d="M207.191 219.11V218.758C207.191 216.387 206.339 215.509 204.302 215.509H202.203V222.359H204.302C206.339 222.359 207.191 221.481 207.191 219.11ZM203.625 221.13V216.738H204.223C205.408 216.738 205.742 217.388 205.742 218.758V219.11C205.742 220.48 205.408 221.13 204.223 221.13H203.625Z" fill="#00335A"/>
<path d="M213.608 215.509H212.186V222.359H213.608V215.509Z" fill="#00335A"/>
<path d="M224.39 217.977L224.355 219.347V222.359H225.778V215.509H223.67L222.449 219.891L221.219 215.509H219.12V222.359H220.543V219.347L220.499 217.977L221.72 222.359H223.169L224.39 217.977Z" fill="#00335A"/>
<path d="M231.763 215.509V222.359H235.953V221.13H233.186V219.478H235.514V218.249H233.186V216.738H235.953V215.509H231.763Z" fill="#00335A"/>
<path d="M246.453 215.509H245.1V218.381L245.144 219.76L242.94 215.509H241.438V222.359H242.782V219.487L242.738 218.108L244.951 222.359H246.453V215.509Z" fill="#00335A"/>
<path d="M254.74 216.738H256.33V215.509H251.736V216.738H253.317V222.359H254.74V216.738Z" fill="#00335A"/>
<path d="M263.849 222.473C265.632 222.473 266.466 221.481 266.466 219.109V218.758C266.466 216.387 265.632 215.394 263.849 215.394C262.074 215.394 261.24 216.387 261.24 218.758V219.109C261.24 221.481 262.074 222.473 263.849 222.473ZM263.813 221.244C262.935 221.244 262.68 220.48 262.68 219.109V218.758C262.68 217.388 262.935 216.624 263.813 216.624H263.892C264.771 216.624 265.017 217.388 265.017 218.758V219.109C265.017 220.48 264.771 221.244 263.892 221.244H263.813Z" fill="#00335A"/>
<path d="M282.096 219.11V218.758C282.096 216.387 281.244 215.509 279.206 215.509H277.107V222.359H279.206C281.244 222.359 282.096 221.481 282.096 219.11ZM278.53 221.13V216.738H279.127C280.313 216.738 280.647 217.388 280.647 218.758V219.11C280.647 220.48 280.313 221.13 279.127 221.13H278.53Z" fill="#00335A"/>
<path d="M290.166 222.473C291.949 222.473 292.783 221.481 292.783 219.109V218.758C292.783 216.387 291.949 215.394 290.166 215.394C288.392 215.394 287.557 216.387 287.557 218.758V219.109C287.557 221.481 288.392 222.473 290.166 222.473ZM290.131 221.244C289.252 221.244 288.998 220.48 288.998 219.109V218.758C288.998 217.388 289.252 216.624 290.131 216.624H290.21C291.088 216.624 291.334 217.388 291.334 218.758V219.109C291.334 220.48 291.088 221.244 290.21 221.244H290.131Z" fill="#00335A"/>
<path d="M305.396 219.496C306.389 219.628 306.643 219.9 306.643 220.392V220.436C306.643 220.892 306.318 221.244 305.66 221.244H305.581C304.922 221.244 304.571 220.884 304.571 220.023H303.148V220.102C303.148 221.753 304 222.473 305.616 222.473C307.223 222.473 308.093 221.709 308.093 220.392V220.304C308.093 219.03 307.337 218.521 305.844 218.319C304.843 218.187 304.641 217.924 304.641 217.423V217.379C304.641 216.94 304.975 216.624 305.546 216.624H305.625C306.345 216.624 306.617 217.037 306.617 217.933H308.04V217.748C308.04 216.141 307.302 215.394 305.616 215.394C304.052 215.394 303.2 216.194 303.2 217.432V217.529C303.2 218.767 303.903 219.294 305.396 219.496Z" fill="#00335A"/>
<path d="M313.491 215.509V222.359H317.681V221.13H314.914V219.478H317.242V218.249H314.914V216.738H317.681V215.509H313.491Z" fill="#00335A"/>
<path d="M325.547 222.474C327.409 222.474 328.015 221.683 328.015 220.19V215.509H326.593V220.146C326.593 220.875 326.355 221.244 325.547 221.244C324.739 221.244 324.511 220.875 324.511 220.146V215.509H323.088V220.19C323.088 221.683 323.685 222.474 325.547 222.474Z" fill="#00335A"/>
<path d="M343.765 215.509H342.413V218.381L342.457 219.76L340.252 215.509H338.75V222.359H340.094V219.487L340.05 218.108L342.263 222.359H343.765V215.509Z" fill="#00335A"/>
<path d="M349.445 215.509V222.359H353.635V221.13H350.868V219.478H353.196V218.249H350.868V216.738H353.635V215.509H349.445Z" fill="#00335A"/>
<path d="M361.648 222.473C362.842 222.473 363.536 222.096 364.045 221.674V218.653H361.718V219.882H362.622V220.98C362.412 221.13 362.095 221.244 361.691 221.244H361.612C360.611 221.244 360.383 220.48 360.383 219.109V218.758C360.383 217.388 360.62 216.624 361.56 216.624H361.639C362.429 216.624 362.631 217.168 362.631 218.108H364.054V217.792C364.054 216.079 363.193 215.394 361.56 215.394C359.786 215.394 358.934 216.387 358.934 218.758V219.109C358.934 221.481 359.786 222.473 361.648 222.473Z" fill="#00335A"/>
<path d="M372.296 222.473C374.079 222.473 374.913 221.481 374.913 219.11V218.758C374.913 216.387 374.079 215.394 372.296 215.394C370.521 215.394 369.687 216.387 369.687 218.758V219.11C369.687 221.481 370.521 222.473 372.296 222.473ZM372.26 221.244C371.382 221.244 371.127 220.48 371.127 219.11V218.758C371.127 217.388 371.382 216.624 372.26 216.624H372.34C373.218 216.624 373.464 217.388 373.464 218.758V219.11C373.464 220.48 373.218 221.244 372.34 221.244H372.26ZM372.094 214.015L371.611 214.982H372.981L373.543 214.015H372.094Z" fill="#00335A"/>
<path d="M381.822 219.109V218.758C381.822 217.388 382.041 216.624 382.955 216.624H383.034C383.78 216.624 383.982 217.168 383.982 218.108H385.405V217.792C385.405 216.079 384.579 215.394 382.955 215.394C381.172 215.394 380.381 216.387 380.381 218.758V219.109C380.381 221.481 381.172 222.473 382.955 222.473C384.579 222.473 385.405 221.788 385.405 220.102V220.023H383.982C383.982 220.761 383.727 221.244 383.034 221.244H382.955C382.041 221.244 381.822 220.48 381.822 219.109Z" fill="#00335A"/>
<path d="M391.829 215.509H390.406V222.359H391.829V215.509Z" fill="#00335A"/>
<path d="M399.465 222.473C401.248 222.473 402.083 221.481 402.083 219.109V218.758C402.083 216.387 401.248 215.394 399.465 215.394C397.691 215.394 396.857 216.387 396.857 218.758V219.109C396.857 221.481 397.691 222.473 399.465 222.473ZM399.43 221.244C398.552 221.244 398.297 220.48 398.297 219.109V218.758C398.297 217.388 398.552 216.624 399.43 216.624H399.509C400.387 216.624 400.633 217.388 400.633 218.758V219.109C400.633 220.48 400.387 221.244 399.509 221.244H399.43Z" fill="#00335A"/>
<path d="M9.55337 182.655H7.28942L0 200.07H3.80642L5.37377 196.288H11.4939L13.0612 200.07H16.8428L9.55337 182.655ZM8.43383 188.675L10.3744 193.452H6.46842L8.43383 188.675Z" fill="#00335A"/>
<path d="M36.2605 182.655H23.4978V185.764H28.0257V200.07H31.7575V185.764H36.2605V182.655Z" fill="#00335A"/>
<path d="M50.3293 197.01V192.855H55.9768V189.795H50.3293V185.715H58.4646V182.655H46.7219V200.07H58.7134V197.01H50.3293Z" fill="#00335A"/>
<path d="M83.3804 182.655H79.8725V192.283L69.4484 182.655H69.3738V200.07H72.8817V190.417L83.256 200.07H83.3804L83.3804 182.655Z" fill="#00335A"/>
<path d="M100.808 182.655H94.5635V200.07H100.808C105.734 200.07 109.615 196.213 109.615 191.263C109.615 186.511 105.734 182.655 100.808 182.655ZM100.808 197.109H98.0714V185.615H100.808C104.167 185.615 106.107 188.128 106.107 191.263C106.107 194.572 104.167 197.109 100.808 197.109Z" fill="#00335A"/>
<path d="M123.908 182.655H120.325V200.07H123.908V182.655Z" fill="#00335A"/>
<path d="M152.68 182.655H149.296L143.649 195.193L137.977 182.655H134.618V200.07H138.101V190.616L142.156 200.07H145.092L149.172 190.566V200.07H152.68V182.655Z" fill="#00335A"/>
<path d="M166.624 197.01V192.855H172.272V189.795H166.624V185.715H174.76V182.655H163.017V200.07H175.008V197.01H166.624Z" fill="#00335A"/>
<path d="M199.675 182.655H196.167V192.283L185.743 182.655H185.669V200.07H189.177V190.417L199.551 200.07H199.675V182.655Z" fill="#00335A"/>
<path d="M223.124 182.655H210.361V185.764H214.889V200.07H218.621V185.764H223.124V182.655Z" fill="#00335A"/>
<path d="M241.272 182.48C236.993 182.48 232.515 186.113 232.515 191.362C232.515 196.612 236.993 200.244 241.272 200.244C245.676 200.244 250.055 196.612 250.055 191.362C250.055 186.113 245.676 182.48 241.272 182.48ZM241.322 185.864C244.109 185.864 246.198 188.053 246.198 191.362C246.198 194.671 244.109 196.86 241.322 196.86C238.71 196.86 236.396 194.671 236.396 191.362C236.396 188.053 238.71 185.864 241.322 185.864Z" fill="#00335A"/>
<path d="M281.849 182.48C278.789 182.48 276.102 184.321 276.102 187.058C276.102 189.869 278.192 191.287 280.904 192.233L281.675 192.531C283.665 193.253 284.461 193.75 284.461 195.119C284.461 196.636 283.018 197.258 281.65 197.258C280.033 197.258 278.665 196.164 278.167 194.895L275.306 196.164C276.202 198.627 278.764 200.244 281.65 200.244C284.486 200.244 287.994 198.676 287.994 195.119C287.994 192.681 286.502 190.74 282.596 189.397L281.824 189.148C280.108 188.576 279.61 188.053 279.61 187.058C279.61 186.113 280.655 185.466 281.849 185.466C283.068 185.466 284.039 186.013 284.486 186.934L287.546 185.914C286.676 184.197 284.685 182.48 281.849 182.48Z" fill="#00335A"/>
<path d="M301.864 182.655H298.282V200.07H301.864V182.655Z" fill="#00335A"/>
<path d="M330.636 182.655H327.253L321.605 195.193L315.933 182.655H312.574V200.07H316.057V190.616L320.112 200.07H323.048L327.128 190.566V200.07H330.636V182.655Z" fill="#00335A"/>
<path d="M347.442 182.655H341.396V200.07H344.904V193.676H347.442C351.522 193.676 353.86 191.312 353.86 188.178C353.86 185.043 351.522 182.655 347.442 182.655ZM347.317 190.591H344.904V185.764H347.317C349.158 185.764 350.353 186.561 350.353 188.178C350.353 189.77 349.158 190.591 347.317 190.591Z" fill="#00335A"/>
<path d="M367.705 197.134V182.655H364.197V200.07H375.069V197.134H367.705Z" fill="#00335A"/>
<path d="M388.964 197.01V192.855H394.612V189.795H388.964V185.715H397.099V182.655H385.357V200.07H397.348V197.01H388.964Z" fill="#00335A"/>
<path d="M413.855 182.48C410.795 182.48 408.108 184.321 408.108 187.058C408.108 189.869 410.198 191.287 412.91 192.233L413.681 192.531C415.671 193.253 416.467 193.75 416.467 195.119C416.467 196.636 415.024 197.258 413.656 197.258C412.039 197.258 410.671 196.164 410.173 194.895L407.312 196.164C408.208 198.627 410.77 200.244 413.656 200.244C416.492 200.244 420 198.676 420 195.119C420 192.681 418.507 190.74 414.601 189.397L413.83 189.148C412.114 188.576 411.616 188.053 411.616 187.058C411.616 186.113 412.661 185.466 413.855 185.466C415.074 185.466 416.044 186.013 416.492 186.934L419.552 185.914C418.682 184.197 416.691 182.48 413.855 182.48Z" fill="#00335A"/>
<path fill-rule="evenodd" clip-rule="evenodd" d="M230.606 96.491C254.513 102.357 272.958 119.338 279.99 142.073C280.248 142.92 280.097 143.845 279.564 144.563C279.042 145.28 278.201 145.701 277.31 145.701H142.696C141.832 145.701 141.013 145.303 140.48 144.608C139.948 143.923 139.763 143.032 139.97 142.196C145.415 120.56 163.479 103.507 187.301 97.0574C192.265 91.713 193.672 88.5221 194.048 87.3051C193.19 85.7966 191.401 82.5495 189.326 78.4613C191.709 79.3698 194.211 80.183 196.897 80.8391C197.861 82.6337 198.736 84.2095 199.42 85.3984C199.645 85.791 199.768 86.2284 199.785 86.677C199.847 87.9332 199.28 92.5654 190.851 101.46L190.935 101.807C190.745 101.847 190.577 101.92 190.391 101.964C191.435 105.985 195.68 117.577 209.879 117.644C224.039 117.583 227.393 105.94 228.116 102.054C220.703 94.3712 219.043 89.4754 218.723 87.1986C218.628 86.5256 218.785 85.8358 219.155 85.2694C223.95 77.9846 236.394 57.0108 236.394 47.6118C236.394 46.6528 236.349 45.6883 236.27 44.7293C228.352 39.8335 224.802 27.2604 224.802 27.2604C216.356 35.0948 192.371 45.1948 184.144 48.5259C184.458 53.2422 187.133 60.4709 190.302 67.5089C194.104 69.4717 198.994 70.9354 205.365 71.3616C206.273 70.1895 207.625 69.382 209.217 69.382C211.949 69.382 214.169 71.5972 214.169 74.3339C214.169 77.0649 211.949 79.2857 209.217 79.2857C207.468 79.2857 205.998 78.3211 205.124 76.9416C187.851 75.82 179.484 67.8286 175.508 60.9027C170.881 59.4839 167.819 55.8219 167.819 50.3653C167.819 47.4267 168.941 45.0321 170.713 43.1983C171.818 21.2711 185.266 0 210.087 0C234.795 0 249.73 22.4992 250.313 44.7125C251.361 46.2995 252.018 48.167 252.018 50.3653C252.018 57.4762 246.841 61.5813 239.725 61.5813H238.373C233.932 72.3206 226.748 83.8562 224.51 87.3388C224.987 88.8024 226.423 91.842 230.606 96.491ZM244.329 40.1756C242.159 24.2377 231.319 5.60801 210.092 5.60801C188.3 5.60801 178.682 24.2265 176.652 39.7999C177.527 39.5531 178.441 39.3961 179.372 39.2896C182.344 25.0509 192.887 12.2479 210.104 12.2479C227.511 12.2479 238.155 25.107 241.127 39.3793C242.237 39.5531 243.314 39.8055 244.329 40.1756ZM185.013 103.585C166.294 109.799 151.988 123.196 146.425 140.093H273.39C266.699 122.462 252.208 109.131 233.635 103.232C232.244 111.032 226.036 123.185 210.042 123.264C210.031 123.264 210.019 123.269 210.008 123.269H209.728C193.986 123.269 186.993 111.33 185.013 103.585Z" fill="#00335A"/>
<path fill-rule="evenodd" clip-rule="evenodd" d="M230.606 96.491C254.513 102.357 272.958 119.338 279.99 142.073C280.248 142.92 280.097 143.845 279.564 144.563C279.042 145.28 278.201 145.701 277.31 145.701H142.696C141.832 145.701 141.013 145.303 140.48 144.608C139.948 143.923 139.763 143.032 139.97 142.196C145.415 120.56 163.479 103.507 187.301 97.0574C192.265 91.713 193.672 88.5221 194.048 87.3051C193.19 85.7966 191.401 82.5495 189.326 78.4613C191.709 79.3698 194.211 80.183 196.897 80.8391C197.861 82.6337 198.736 84.2095 199.42 85.3984C199.645 85.791 199.768 86.2284 199.785 86.677C199.847 87.9332 199.28 92.5654 190.851 101.46L190.935 101.807C190.745 101.847 190.577 101.92 190.391 101.964C191.435 105.985 195.68 117.577 209.879 117.644C224.039 117.583 227.393 105.94 228.116 102.054C220.703 94.3712 219.043 89.4754 218.723 87.1986C218.628 86.5256 218.785 85.8358 219.155 85.2694C223.95 77.9846 236.394 57.0108 236.394 47.6118C236.394 46.6528 236.349 45.6883 236.27 44.7293C228.352 39.8335 224.802 27.2604 224.802 27.2604C216.356 35.0948 192.371 45.1948 184.144 48.5259C184.458 53.2422 187.133 60.4709 190.302 67.5089C194.104 69.4717 198.994 70.9354 205.365 71.3616C206.273 70.1895 207.625 69.382 209.217 69.382C211.949 69.382 214.169 71.5972 214.169 74.3339C214.169 77.0649 211.949 79.2857 209.217 79.2857C207.468 79.2857 205.998 78.3211 205.124 76.9416C187.851 75.82 179.484 67.8286 175.508 60.9027C170.881 59.4839 167.819 55.8219 167.819 50.3653C167.819 47.4267 168.941 45.0321 170.713 43.1983C171.818 21.2711 185.266 0 210.087 0C234.795 0 249.73 22.4992 250.313 44.7125C251.361 46.2995 252.018 48.167 252.018 50.3653C252.018 57.4762 246.841 61.5813 239.725 61.5813H238.373C233.932 72.3206 226.748 83.8562 224.51 87.3388C224.987 88.8024 226.423 91.842 230.606 96.491ZM244.329 40.1756C242.159 24.2377 231.319 5.60801 210.092 5.60801C188.3 5.60801 178.682 24.2265 176.652 39.7999C177.527 39.5531 178.441 39.3961 179.372 39.2896C182.344 25.0509 192.887 12.2479 210.104 12.2479C227.511 12.2479 238.155 25.107 241.127 39.3793C242.237 39.5531 243.314 39.8055 244.329 40.1756ZM185.013 103.585C166.294 109.799 151.988 123.196 146.425 140.093H273.39C266.699 122.462 252.208 109.131 233.635 103.232C232.244 111.032 226.036 123.185 210.042 123.264C210.031 123.264 210.019 123.269 210.008 123.269H209.728C193.986 123.269 186.993 111.33 185.013 103.585Z" fill="#00335A"/>
</svg>
