<svg xmlns:mydata="http://www.w3.org/2000/svg" mydata:contrastcolor="ffffff" mydata:template="Contrast" mydata:presentation="2.5" mydata:layouttype="undefined" mydata:specialfontid="undefined" mydata:id1="001" mydata:id2="136" mydata:companyname="Atendimento Simples para Imobiliárias" mydata:companytagline="" version="1.1" xmlns="http://www.w3.org/2000/svg" xmlns:xlink="http://www.w3.org/1999/xlink" viewBox="0 0 550 470" style="height: 792px;"><g fill="#012169" fill-rule="none" stroke="none" stroke-width="1" stroke-linecap="butt" stroke-linejoin="miter" stroke-miterlimit="10" stroke-dasharray="" stroke-dashoffset="0" font-family="none" font-weight="none" font-size="none" text-anchor="none" style="mix-blend-mode: normal"><g data-paper-data="{&quot;isGlobalGroup&quot;:true,&quot;bounds&quot;:{&quot;x&quot;:76.9413610258768,&quot;y&quot;:114.99999999999997,&quot;width&quot;:396.11727794824645,&quot;height&quot;:240.00000000000003}}"><g data-paper-data="{&quot;isSecondaryText&quot;:true}" fill-rule="nonzero" id="element-id-59266"><path d="M140.80028,352.62572c0,-1.32799 -0.95776,-1.93162 -1.93162,-2.25355l-1.14287,-0.37827c-0.56339,-0.18511 -0.94971,-0.54729 -0.94971,-1.19116c0,-0.64387 0.5151,-1.32799 1.60968,-1.32799c0.74045,0 1.37628,0.36218 1.79479,0.78069l0.61973,-0.62778c-0.59558,-0.59558 -1.40847,-0.998 -2.41452,-0.998c-1.79479,0 -2.61573,1.18311 -2.61573,2.17307c0,1.15897 0.70826,1.7787 1.60968,2.07649l1.13482,0.37827c0.7324,0.24145 1.2797,0.66802 1.2797,1.36823c0,0.88532 -0.63582,1.5292 -1.64992,1.5292c-0.78874,0 -1.44871,-0.31389 -1.91552,-0.78069l-0.61973,0.61973c0.4829,0.4829 1.35213,1.00605 2.53525,1.00605c1.62578,0 2.65597,-0.96581 2.65597,-2.37428z" data-paper-data="{&quot;glyphName&quot;:&quot;S&quot;,&quot;glyphIndex&quot;:0,&quot;firstGlyphOfWord&quot;:true,&quot;word&quot;:1}" id="element-id-69815"></path><path d="M148.31402,346.79063h-0.96581v8.0484h0.96581z" data-paper-data="{&quot;glyphName&quot;:&quot;I&quot;,&quot;glyphIndex&quot;:1,&quot;word&quot;:1}" id="element-id-30286"></path><path d="M163.93317,346.79063h-1.52115l-2.30184,6.90553l-2.30184,-6.90553h-1.52115v8.0484h0.96581v-6.90553l2.30184,6.90553h1.11068l2.30184,-6.90553v6.90553h0.96581z" data-paper-data="{&quot;glyphName&quot;:&quot;M&quot;,&quot;glyphIndex&quot;:2,&quot;word&quot;:1}" id="element-id-74997"></path><path d="M176.82776,349.06833c0,0.80484 -0.52315,1.42457 -1.56944,1.42457h-1.5292v-2.85718h1.5292c1.04629,0 1.56944,0.62778 1.56944,1.43262zM177.83381,349.06028c0,-1.28774 -0.96581,-2.26965 -2.57549,-2.26965h-2.495v8.0484h0.96581v-3.50105h1.5292c1.60968,0 2.57549,-0.92557 2.57549,-2.2777z" data-paper-data="{&quot;glyphName&quot;:&quot;P&quot;,&quot;glyphIndex&quot;:3,&quot;word&quot;:1}" id="element-id-7914"></path><path d="M189.09976,353.99395h-3.21936v-7.20332h-0.96581v8.0484h4.18517z" data-paper-data="{&quot;glyphName&quot;:&quot;L&quot;,&quot;glyphIndex&quot;:4,&quot;word&quot;:1}" id="element-id-43664"></path><path d="M199.7245,353.99395h-3.21936v-2.81694h3.05839v-0.84508h-3.05839v-2.69621h3.13888v-0.84508h-4.10468v8.0484h4.18517z" data-paper-data="{&quot;glyphName&quot;:&quot;E&quot;,&quot;glyphIndex&quot;:5,&quot;word&quot;:1}" id="element-id-46465"></path><path d="M211.56534,352.62572c0,-1.32799 -0.95776,-1.93162 -1.93162,-2.25355l-1.14287,-0.37827c-0.56339,-0.18511 -0.94971,-0.54729 -0.94971,-1.19116c0,-0.64387 0.5151,-1.32799 1.60968,-1.32799c0.74045,0 1.37628,0.36218 1.79479,0.78069l0.61973,-0.62778c-0.59558,-0.59558 -1.40847,-0.998 -2.41452,-0.998c-1.79479,0 -2.61573,1.18311 -2.61573,2.17307c0,1.15897 0.70826,1.7787 1.60968,2.07649l1.13482,0.37827c0.7324,0.24145 1.2797,0.66802 1.2797,1.36823c0,0.88532 -0.63582,1.5292 -1.64992,1.5292c-0.78874,0 -1.44871,-0.31389 -1.91552,-0.78069l-0.61973,0.61973c0.4829,0.4829 1.35213,1.00605 2.53525,1.00605c1.62578,0 2.65597,-0.96581 2.65597,-2.37428z" data-paper-data="{&quot;glyphName&quot;:&quot;S&quot;,&quot;glyphIndex&quot;:6,&quot;lastGlyphOfWord&quot;:true,&quot;word&quot;:1}" id="element-id-14907"></path><path d="M230.2367,349.06833c0,0.80484 -0.52315,1.42457 -1.56944,1.42457h-1.5292v-2.85718h1.5292c1.04629,0 1.56944,0.62778 1.56944,1.43262zM231.24275,349.06028c0,-1.28774 -0.96581,-2.26965 -2.57549,-2.26965h-2.495v8.0484h0.96581v-3.50105h1.5292c1.60968,0 2.57549,-0.92557 2.57549,-2.2777z" data-paper-data="{&quot;glyphName&quot;:&quot;P&quot;,&quot;glyphIndex&quot;:7,&quot;firstGlyphOfWord&quot;:true,&quot;word&quot;:2}" id="element-id-16834"></path><path d="M239.562,351.94161l1.42457,-3.99201l1.42457,3.99201zM241.50971,346.79063h-1.04629l-2.97791,8.0484h1.04629l0.7324,-2.05234h3.44472l0.7324,2.05234h1.04629z" data-paper-data="{&quot;glyphName&quot;:&quot;A&quot;,&quot;glyphIndex&quot;:8,&quot;word&quot;:2}" id="element-id-45000"></path><path d="M255.88886,348.92346c0,0.88532 -0.68411,1.40847 -1.64992,1.40847h-1.44871v-2.69621h1.71431c1.06239,0 1.38432,0.53119 1.38432,1.28774zM256.62931,351.91746c-0.12877,-0.63582 -0.49095,-1.12678 -1.15897,-1.19921c0.83703,-0.24145 1.42457,-1.0141 1.42457,-1.94771c0,-1.09458 -0.7646,-1.97991 -2.37428,-1.97991h-2.69621v8.0484h0.96581v-3.66202h1.7787c0.60363,0 0.96581,0.36218 1.07044,0.90142l0.54729,2.7606h1.0302z" data-paper-data="{&quot;glyphName&quot;:&quot;R&quot;,&quot;glyphIndex&quot;:9,&quot;word&quot;:2}" id="element-id-80000"></path><path d="M265.7174,351.94161l1.42457,-3.99201l1.42457,3.99201zM267.66512,346.79063h-1.04629l-2.97791,8.0484h1.04629l0.7324,-2.05234h3.44472l0.7324,2.05234h1.04629z" data-paper-data="{&quot;glyphName&quot;:&quot;A&quot;,&quot;glyphIndex&quot;:10,&quot;lastGlyphOfWord&quot;:true,&quot;word&quot;:2}" id="element-id-75416"></path><path d="M285.22344,346.79063h-0.96581v8.0484h0.96581z" data-paper-data="{&quot;glyphName&quot;:&quot;I&quot;,&quot;glyphIndex&quot;:11,&quot;firstGlyphOfWord&quot;:true,&quot;word&quot;:3}" id="element-id-28442"></path><path d="M300.84259,346.79063h-1.52115l-2.30184,6.90553l-2.30184,-6.90553h-1.52115v8.0484h0.96581v-6.90553l2.30184,6.90553h1.11068l2.30184,-6.90553v6.90553h0.96581z" data-paper-data="{&quot;glyphName&quot;:&quot;M&quot;,&quot;glyphIndex&quot;:12,&quot;word&quot;:3}" id="element-id-97932"></path><path d="M315.52507,350.81483c0,2.0121 -1.16702,3.29984 -2.57549,3.29984c-1.40847,0 -2.57549,-1.28774 -2.57549,-3.29984c0,-2.0121 1.16702,-3.29984 2.57549,-3.29984c1.40847,0 2.57549,1.28774 2.57549,3.29984zM316.53112,350.81483c0,-2.41452 -1.48895,-4.14493 -3.58154,-4.14493c-2.09258,0 -3.58154,1.73041 -3.58154,4.14493c0,2.41452 1.48895,4.14493 3.58154,4.14493c2.09258,0 3.58154,-1.73041 3.58154,-4.14493z" data-paper-data="{&quot;glyphName&quot;:&quot;O&quot;,&quot;glyphIndex&quot;:13,&quot;word&quot;:3}" id="element-id-65153"></path><path d="M328.87516,352.505c0,0.95776 -0.56339,1.48895 -1.73041,1.48895h-1.60968v-2.81694h1.60968c1.12678,0 1.73041,0.53119 1.73041,1.32799zM328.63371,348.92346c0,0.88532 -0.68411,1.40847 -1.64992,1.40847h-1.44871v-2.69621h1.71431c1.06239,0 1.38432,0.53119 1.38432,1.28774zM329.88121,352.54524c0,-1.00605 -0.82094,-1.7787 -2.0121,-1.81089c1.07849,-0.15292 1.77065,-0.96581 1.77065,-1.96381c0,-1.09458 -0.7646,-1.97991 -2.37428,-1.97991h-2.69621v8.0484h2.57549c1.85113,0 2.73646,-0.88532 2.73646,-2.29379z" data-paper-data="{&quot;glyphName&quot;:&quot;B&quot;,&quot;glyphIndex&quot;:14,&quot;word&quot;:3}" id="element-id-66332"></path><path d="M337.53425,346.79063h-0.96581v8.0484h0.96581z" data-paper-data="{&quot;glyphName&quot;:&quot;I&quot;,&quot;glyphIndex&quot;:15,&quot;word&quot;:3}" id="element-id-1115"></path><path d="M348.97003,353.99395h-3.21936v-7.20332h-0.96581v8.0484h4.18517z" data-paper-data="{&quot;glyphName&quot;:&quot;L&quot;,&quot;glyphIndex&quot;:16,&quot;word&quot;:3}" id="element-id-65545"></path><path d="M355.70327,346.79063h-0.96581v8.0484h0.96581z" data-paper-data="{&quot;glyphName&quot;:&quot;I&quot;,&quot;glyphIndex&quot;:17,&quot;word&quot;:3}" id="element-id-95211"></path><path d="M364.19235,351.94161l1.42457,-3.99201l1.42457,3.99201zM366.14007,346.79063h-1.04629l-2.97791,8.0484h1.04629l0.7324,-2.05234h3.44472l0.7324,2.05234h1.04629zM365.61692,344.57732l-0.92557,1.85113h0.69216l1.31994,-1.85113z" data-paper-data="{&quot;glyphName&quot;:&quot;Á&quot;,&quot;glyphIndex&quot;:18,&quot;word&quot;:3}" id="element-id-6820"></path><path d="M380.51922,348.92346c0,0.88532 -0.68411,1.40847 -1.64992,1.40847h-1.44871v-2.69621h1.71431c1.06239,0 1.38432,0.53119 1.38432,1.28774zM381.25967,351.91746c-0.12877,-0.63582 -0.49095,-1.12678 -1.15897,-1.19921c0.83703,-0.24145 1.42457,-1.0141 1.42457,-1.94771c0,-1.09458 -0.7646,-1.97991 -2.37428,-1.97991h-2.69621v8.0484h0.96581v-3.66202h1.7787c0.60363,0 0.96581,0.36218 1.07044,0.90142l0.54729,2.7606h1.0302z" data-paper-data="{&quot;glyphName&quot;:&quot;R&quot;,&quot;glyphIndex&quot;:19,&quot;word&quot;:3}" id="element-id-84852"></path><path d="M389.40295,346.79063h-0.96581v8.0484h0.96581z" data-paper-data="{&quot;glyphName&quot;:&quot;I&quot;,&quot;glyphIndex&quot;:20,&quot;word&quot;:3}" id="element-id-33059"></path><path d="M397.89204,351.94161l1.42457,-3.99201l1.42457,3.99201zM399.83975,346.79063h-1.04629l-2.97791,8.0484h1.04629l0.7324,-2.05234h3.44472l0.7324,2.05234h1.04629z" data-paper-data="{&quot;glyphName&quot;:&quot;A&quot;,&quot;glyphIndex&quot;:21,&quot;word&quot;:3}" id="element-id-10801"></path><path d="M414.39094,352.62572c0,-1.32799 -0.95776,-1.93162 -1.93162,-2.25355l-1.14287,-0.37827c-0.56339,-0.18511 -0.94971,-0.54729 -0.94971,-1.19116c0,-0.64387 0.5151,-1.32799 1.60968,-1.32799c0.74045,0 1.37628,0.36218 1.79479,0.78069l0.61973,-0.62778c-0.59558,-0.59558 -1.40847,-0.998 -2.41452,-0.998c-1.79479,0 -2.61573,1.18311 -2.61573,2.17307c0,1.15897 0.70826,1.7787 1.60968,2.07649l1.13482,0.37827c0.7324,0.24145 1.2797,0.66802 1.2797,1.36823c0,0.88532 -0.63582,1.5292 -1.64992,1.5292c-0.78874,0 -1.44871,-0.31389 -1.91552,-0.78069l-0.61973,0.61973c0.4829,0.4829 1.35213,1.00605 2.53525,1.00605c1.62578,0 2.65597,-0.96581 2.65597,-2.37428z" data-paper-data="{&quot;glyphName&quot;:&quot;S&quot;,&quot;glyphIndex&quot;:22,&quot;lastGlyphOfWord&quot;:true,&quot;word&quot;:3}" id="element-id-7931"></path></g><g data-paper-data="{&quot;isPrimaryText&quot;:true}" fill-rule="nonzero" id="element-id-48743"><path d="M100.1981,327.8838h6.35985l-14.82711,-28.52526l-14.78948,28.52526h6.02116l1.80635,-3.76323h13.58525zM91.50505,310.12137l4.29008,8.73069h-8.50489z" data-paper-data="{&quot;glyphName&quot;:&quot;A&quot;,&quot;glyphIndex&quot;:0,&quot;firstGlyphOfWord&quot;:true,&quot;word&quot;:1}" id="element-id-85616"></path><path d="M126.63477,327.8838v-22.76752h7.37592v-5.26852h-20.13326v5.26852h6.92434v22.76752z" data-paper-data="{&quot;glyphName&quot;:&quot;T&quot;,&quot;glyphIndex&quot;:1,&quot;word&quot;:1}" id="element-id-37802"></path><path d="M166.5438,327.8838v-5.26852h-11.55311v-6.9996h10.53704v-5.26852h-10.53704v-5.23089h9.06938v-5.26852h-14.90238v28.03604z" data-paper-data="{&quot;glyphName&quot;:&quot;E&quot;,&quot;glyphIndex&quot;:2,&quot;word&quot;:1}" id="element-id-19387"></path><path d="M202.42617,316.06727l-19.9451,-16.74636v28.56289h5.833v-16.10661l19.9451,16.59583v-28.52526h-5.833z" data-paper-data="{&quot;glyphName&quot;:&quot;N&quot;,&quot;glyphIndex&quot;:3,&quot;word&quot;:1}" id="element-id-78470"></path><path d="M225.36304,299.84776v28.03604h11.40258c8.05331,0 14.63895,-5.98353 14.63895,-14.03684c0,-7.97804 -6.58565,-13.9992 -14.67659,-13.9992zM231.19604,322.61529v-17.49901h5.53194c4.8922,0 8.69305,3.65033 8.69305,8.73069c0,5.04272 -3.80086,8.76832 -8.65542,8.76832z" data-paper-data="{&quot;glyphName&quot;:&quot;D&quot;,&quot;glyphIndex&quot;:4,&quot;word&quot;:1}" id="element-id-9826"></path><path d="M273.17483,299.84776h-5.833v28.03604h5.833z" data-paper-data="{&quot;glyphName&quot;:&quot;I&quot;,&quot;glyphIndex&quot;:5,&quot;word&quot;:1}" id="element-id-35602"></path><path d="M305.21871,310.68586l-14.94001,-11.32731v28.52526h5.833v-16.89689l9.10701,6.58565l9.10701,-6.58565v16.89689h5.833v-28.52526z" data-paper-data="{&quot;glyphName&quot;:&quot;M&quot;,&quot;glyphIndex&quot;:6,&quot;word&quot;:1}" id="element-id-16302"></path><path d="M354.6487,327.8838v-5.26852h-11.55311v-6.9996h10.53704v-5.26852h-10.53704v-5.23089h9.06938v-5.26852h-14.90238v28.03604z" data-paper-data="{&quot;glyphName&quot;:&quot;E&quot;,&quot;glyphIndex&quot;:7,&quot;word&quot;:1}" id="element-id-33892"></path><path d="M390.53107,316.06727l-19.9451,-16.74636v28.56289h5.833v-16.10661l19.9451,16.59583v-28.52526h-5.833z" data-paper-data="{&quot;glyphName&quot;:&quot;N&quot;,&quot;glyphIndex&quot;:8,&quot;word&quot;:1}" id="element-id-78421"></path><path d="M424.2684,327.8838v-22.76752h7.37592v-5.26852h-20.13326v5.26852h6.92434v22.76752z" data-paper-data="{&quot;glyphName&quot;:&quot;T&quot;,&quot;glyphIndex&quot;:9,&quot;word&quot;:1}" id="element-id-36821"></path><path d="M458.57021,328.37302c8.01567,0 14.48842,-6.51038 14.48842,-14.52606c0,-8.01567 -6.47275,-14.48842 -14.52606,-14.48842c-8.01567,0 -14.48842,6.47275 -14.48842,14.48842c0,8.01567 6.47275,14.52606 14.52606,14.52606zM458.53258,304.92812c4.74167,0 8.54253,3.98902 8.54253,8.91885c0,5.00509 -3.76323,8.91885 -8.50489,8.91885c-4.81693,0 -8.54253,-3.91376 -8.54253,-8.91885c0,-4.92983 3.72559,-8.91885 8.50489,-8.91885z" data-paper-data="{&quot;glyphName&quot;:&quot;O&quot;,&quot;glyphIndex&quot;:10,&quot;lastGlyphOfWord&quot;:true,&quot;word&quot;:1}" id="element-id-30073"></path></g><g data-paper-data="{&quot;fillRule&quot;:&quot;evenodd&quot;,&quot;fillRuleOriginal&quot;:&quot;evenodd&quot;,&quot;isIcon&quot;:true,&quot;iconStyle&quot;:&quot;standalone&quot;,&quot;selectedEffects&quot;:{&quot;container&quot;:&quot;&quot;,&quot;transformation&quot;:&quot;&quot;,&quot;pattern&quot;:&quot;&quot;},&quot;bounds&quot;:{&quot;x&quot;:201.5078385075922,&quot;y&quot;:114.99999999999997,&quot;width&quot;:146.9843229848157,&quot;height&quot;:145.1299467183907},&quot;iconType&quot;:&quot;icon&quot;,&quot;rawIconId&quot;:&quot;49c1feb1-7803-4700-ae5a-d8bc6e15eb87&quot;,&quot;isSvgStockIcon&quot;:true,&quot;combineTerms&quot;:&quot;building&quot;,&quot;combineTermsExtended&quot;:{&quot;icon&quot;:[&quot;building&quot;]},&quot;isDetailed&quot;:false,&quot;suitableAsStandaloneIcon&quot;:true}" fill-rule="evenodd" id="element-id-34063"><path d="M201.50784,259.75729h4.45407v-69.03809h66.57759l-0.04491,69.40778l4.45407,0.00297l0.09428,-145.12995h-75.5351zM272.58589,119.45407l-0.02042,31.17849h-66.60357v-31.17849zM205.96191,186.26512v-31.17849h66.60097l-0.02042,31.17849zM310.63219,161.53872l-25.33104,25.38041l3.15274,3.14606l22.17905,-22.22247l33.40516,33.44858v58.46598h4.45407v-60.30923zM225.26288,259.75729h4.45407v-33.40553h19.30097v33.40553h4.45407v-37.8596h-28.20911zM296.52801,259.75729h4.45407v-33.40553h19.30097v33.40553h4.45407v-37.8596h-28.20911z" data-paper-data="{&quot;isPathIcon&quot;:true}" id="element-id-97937"></path></g></g></g><rect data-element-id="element-id-34063" stroke-width="2" fill="transparent" class="invisible-element-box grouping-element" x="202" y="115" width="147" height="145" data-element-name="isIcon"></rect><rect data-element-id="element-id-97937" stroke-width="2" fill="transparent" class="invisible-element-box individual-element" x="202" y="115" width="147" height="145"></rect><rect data-element-id="element-id-48743" stroke-width="2" fill="transparent" class="invisible-element-box grouping-element" x="77" y="299" width="396" height="29" data-element-name="isPrimaryText"></rect><rect data-element-id="element-id-59266" stroke-width="2" fill="transparent" class="invisible-element-box grouping-element" x="136" y="345" width="279" height="10" data-element-name="isSecondaryText"></rect><rect data-element-id="element-id-85616" stroke-width="2" fill="transparent" class="invisible-element-box individual-element" x="77" y="299" width="30" height="29"></rect><rect data-element-id="element-id-16302" stroke-width="2" fill="transparent" class="invisible-element-box individual-element" x="290" y="299" width="30" height="29"></rect><rect data-element-id="element-id-30073" stroke-width="2" fill="transparent" class="invisible-element-box individual-element" x="444" y="299" width="29" height="29"></rect><rect data-element-id="element-id-78470" stroke-width="2" fill="transparent" class="invisible-element-box individual-element" x="182" y="299" width="26" height="29"></rect><rect data-element-id="element-id-78421" stroke-width="2" fill="transparent" class="invisible-element-box individual-element" x="371" y="299" width="26" height="29"></rect><rect data-element-id="element-id-9826" stroke-width="2" fill="transparent" class="invisible-element-box individual-element" x="225" y="300" width="26" height="28"></rect><rect data-element-id="element-id-37802" stroke-width="2" fill="transparent" class="invisible-element-box individual-element" x="114" y="300" width="20" height="28"></rect><rect data-element-id="element-id-36821" stroke-width="2" fill="transparent" class="invisible-element-box individual-element" x="412" y="300" width="20" height="28"></rect><rect data-element-id="element-id-19387" stroke-width="2" fill="transparent" class="invisible-element-box individual-element" x="149" y="300" width="17" height="28"></rect><rect data-element-id="element-id-33892" stroke-width="2" fill="transparent" class="invisible-element-box individual-element" x="337" y="300" width="17" height="28"></rect><rect data-element-id="element-id-35602" stroke-width="2" fill="transparent" class="invisible-element-box individual-element" x="267" y="300" width="6" height="28"></rect><rect data-element-id="element-id-6820" stroke-width="2" fill="transparent" class="invisible-element-box individual-element" x="362" y="345" width="7" height="10"></rect><rect data-element-id="element-id-74997" stroke-width="2" fill="transparent" class="invisible-element-box individual-element" x="156" y="347" width="8" height="8"></rect><rect data-element-id="element-id-97932" stroke-width="2" fill="transparent" class="invisible-element-box individual-element" x="293" y="347" width="8" height="8"></rect><rect data-element-id="element-id-45000" stroke-width="2" fill="transparent" class="invisible-element-box individual-element" x="237" y="347" width="7" height="8"></rect><rect data-element-id="element-id-75416" stroke-width="2" fill="transparent" class="invisible-element-box individual-element" x="264" y="347" width="7" height="8"></rect><rect data-element-id="element-id-65153" stroke-width="2" fill="transparent" class="invisible-element-box individual-element" x="309" y="347" width="7" height="8"></rect><rect data-element-id="element-id-10801" stroke-width="2" fill="transparent" class="invisible-element-box individual-element" x="396" y="347" width="7" height="8"></rect><rect data-element-id="element-id-69815" stroke-width="2" fill="transparent" class="invisible-element-box individual-element" x="136" y="347" width="5" height="8"></rect><rect data-element-id="element-id-7914" stroke-width="2" fill="transparent" class="invisible-element-box individual-element" x="173" y="347" width="5" height="8"></rect><rect data-element-id="element-id-14907" stroke-width="2" fill="transparent" class="invisible-element-box individual-element" x="206" y="347" width="5" height="8"></rect><rect data-element-id="element-id-16834" stroke-width="2" fill="transparent" class="invisible-element-box individual-element" x="226" y="347" width="5" height="8"></rect><rect data-element-id="element-id-80000" stroke-width="2" fill="transparent" class="invisible-element-box individual-element" x="252" y="347" width="5" height="8"></rect><rect data-element-id="element-id-66332" stroke-width="2" fill="transparent" class="invisible-element-box individual-element" x="325" y="347" width="5" height="8"></rect><rect data-element-id="element-id-84852" stroke-width="2" fill="transparent" class="invisible-element-box individual-element" x="376" y="347" width="5" height="8"></rect><rect data-element-id="element-id-7931" stroke-width="2" fill="transparent" class="invisible-element-box individual-element" x="409" y="347" width="5" height="8"></rect><rect data-element-id="element-id-43664" stroke-width="2" fill="transparent" class="invisible-element-box individual-element" x="185" y="347" width="4" height="8"></rect><rect data-element-id="element-id-46465" stroke-width="2" fill="transparent" class="invisible-element-box individual-element" x="196" y="347" width="4" height="8"></rect><rect data-element-id="element-id-65545" stroke-width="2" fill="transparent" class="invisible-element-box individual-element" x="345" y="347" width="4" height="8"></rect><rect data-element-id="element-id-30286" stroke-width="2" fill="transparent" class="invisible-element-box individual-element" x="147" y="347" width="1" height="8"></rect><rect data-element-id="element-id-28442" stroke-width="2" fill="transparent" class="invisible-element-box individual-element" x="284" y="347" width="1" height="8"></rect><rect data-element-id="element-id-1115" stroke-width="2" fill="transparent" class="invisible-element-box individual-element" x="337" y="347" width="1" height="8"></rect><rect data-element-id="element-id-95211" stroke-width="2" fill="transparent" class="invisible-element-box individual-element" x="355" y="347" width="1" height="8"></rect><rect data-element-id="element-id-33059" stroke-width="2" fill="transparent" class="invisible-element-box individual-element" x="388" y="347" width="1" height="8"></rect></svg>