<svg width="141" height="146" viewBox="0 0 141 146" fill="none" xmlns="http://www.w3.org/2000/svg">
<path fill-rule="evenodd" clip-rule="evenodd" d="M90.7194 96.491C114.626 102.357 133.071 119.338 140.103 142.073C140.361 142.92 140.21 143.845 139.677 144.563C139.156 145.28 138.314 145.701 137.423 145.701H2.80859C1.94496 145.701 1.12617 145.303 0.593424 144.608C0.0606638 143.923 -0.124391 143.032 0.0831089 142.196C5.52846 120.56 23.5918 103.507 47.4145 97.0574C52.3776 91.713 53.7852 88.5221 54.1609 87.3051C53.3029 85.7966 51.5139 82.5495 49.439 78.4613C51.8224 79.3698 54.3235 80.183 57.0098 80.8391C57.9743 82.6337 58.8492 84.2095 59.5334 85.3984C59.7577 85.791 59.881 86.2284 59.8979 86.677C59.9595 87.9332 59.3931 92.5654 50.9643 101.46L51.0485 101.807C50.8578 101.847 50.6896 101.92 50.5045 101.964C51.5476 105.985 55.7928 117.577 69.9922 117.644C84.1524 117.583 87.506 105.94 88.2294 102.054C80.8157 94.3712 79.1557 89.4754 78.836 87.1986C78.7407 86.5256 78.8977 85.8358 79.2678 85.2694C84.0627 77.9846 96.5068 57.0108 96.5068 47.6118C96.5068 46.6528 96.4619 45.6883 96.3834 44.7293C88.4649 39.8335 84.9151 27.2604 84.9151 27.2604C76.4695 35.0948 52.4841 45.1948 44.2572 48.5259C44.5712 53.2422 47.2463 60.4709 50.4148 67.5089C54.217 69.4717 59.1071 70.9354 65.4778 71.3616C66.3863 70.1895 67.7378 69.382 69.3305 69.382C72.0616 69.382 74.2824 71.5972 74.2824 74.3339C74.2824 77.0649 72.0616 79.2857 69.3305 79.2857C67.5808 79.2857 66.1115 78.3211 65.2367 76.9416C47.9641 75.82 39.597 67.8286 35.6209 60.9027C30.9943 59.4839 27.9324 55.8219 27.9324 50.3653C27.9324 47.4267 29.054 45.0321 30.8261 43.1983C31.9309 21.2711 45.3788 0 70.1998 0C94.9085 0 109.843 22.4992 110.426 44.7125C111.475 46.2995 112.131 48.167 112.131 50.3653C112.131 57.4762 106.954 61.5813 99.8379 61.5813H98.4864C94.0449 72.3206 86.8611 83.8562 84.6235 87.3388C85.1002 88.8024 86.5358 91.842 90.7194 96.491ZM104.442 40.1756C102.272 24.2377 91.4316 5.60801 70.2053 5.60801C48.4127 5.60801 38.795 24.2265 36.7649 39.7999C37.6398 39.5531 38.5539 39.3961 39.4848 39.2896C42.457 25.0509 53 12.2479 70.2165 12.2479C87.6237 12.2479 98.2677 25.107 101.24 39.3793C102.35 39.5531 103.427 39.8055 104.442 40.1756ZM45.1264 103.585C26.407 109.799 12.101 123.196 6.5379 140.093H133.503C126.812 122.462 112.321 109.131 93.7476 103.232C92.3569 111.032 86.1488 123.185 70.1549 123.264C70.1436 123.264 70.1324 123.269 70.1212 123.269H69.8408C54.0992 123.269 47.106 111.33 45.1264 103.585Z" fill="#00335A"/>
<path fill-rule="evenodd" clip-rule="evenodd" d="M90.7194 96.491C114.626 102.357 133.071 119.338 140.103 142.073C140.361 142.92 140.21 143.845 139.677 144.563C139.156 145.28 138.314 145.701 137.423 145.701H2.80859C1.94496 145.701 1.12617 145.303 0.593424 144.608C0.0606638 143.923 -0.124391 143.032 0.0831089 142.196C5.52846 120.56 23.5918 103.507 47.4145 97.0574C52.3776 91.713 53.7852 88.5221 54.1609 87.3051C53.3029 85.7966 51.5139 82.5495 49.439 78.4613C51.8224 79.3698 54.3235 80.183 57.0098 80.8391C57.9743 82.6337 58.8492 84.2095 59.5334 85.3984C59.7577 85.791 59.881 86.2284 59.8979 86.677C59.9595 87.9332 59.3931 92.5654 50.9643 101.46L51.0485 101.807C50.8578 101.847 50.6896 101.92 50.5045 101.964C51.5476 105.985 55.7928 117.577 69.9922 117.644C84.1524 117.583 87.506 105.94 88.2294 102.054C80.8157 94.3712 79.1557 89.4754 78.836 87.1986C78.7407 86.5256 78.8977 85.8358 79.2678 85.2694C84.0627 77.9846 96.5068 57.0108 96.5068 47.6118C96.5068 46.6528 96.4619 45.6883 96.3834 44.7293C88.4649 39.8335 84.9151 27.2604 84.9151 27.2604C76.4695 35.0948 52.4841 45.1948 44.2572 48.5259C44.5712 53.2422 47.2463 60.4709 50.4148 67.5089C54.217 69.4717 59.1071 70.9354 65.4778 71.3616C66.3863 70.1895 67.7378 69.382 69.3305 69.382C72.0616 69.382 74.2824 71.5972 74.2824 74.3339C74.2824 77.0649 72.0616 79.2857 69.3305 79.2857C67.5808 79.2857 66.1115 78.3211 65.2367 76.9416C47.9641 75.82 39.597 67.8286 35.6209 60.9027C30.9943 59.4839 27.9324 55.8219 27.9324 50.3653C27.9324 47.4267 29.054 45.0321 30.8261 43.1983C31.9309 21.2711 45.3788 0 70.1998 0C94.9085 0 109.843 22.4992 110.426 44.7125C111.475 46.2995 112.131 48.167 112.131 50.3653C112.131 57.4762 106.954 61.5813 99.8379 61.5813H98.4864C94.0449 72.3206 86.8611 83.8562 84.6235 87.3388C85.1002 88.8024 86.5358 91.842 90.7194 96.491ZM104.442 40.1756C102.272 24.2377 91.4316 5.60801 70.2053 5.60801C48.4127 5.60801 38.795 24.2265 36.7649 39.7999C37.6398 39.5531 38.5539 39.3961 39.4848 39.2896C42.457 25.0509 53 12.2479 70.2165 12.2479C87.6237 12.2479 98.2677 25.107 101.24 39.3793C102.35 39.5531 103.427 39.8055 104.442 40.1756ZM45.1264 103.585C26.407 109.799 12.101 123.196 6.5379 140.093H133.503C126.812 122.462 112.321 109.131 93.7476 103.232C92.3569 111.032 86.1488 123.185 70.1549 123.264C70.1436 123.264 70.1324 123.269 70.1212 123.269H69.8408C54.0992 123.269 47.106 111.33 45.1264 103.585Z" fill="#00335A"/>
</svg>
