<svg width="398" height="240" viewBox="0 0 398 240" fill="none" xmlns="http://www.w3.org/2000/svg">
<path d="M64.8004 237.626C64.8004 236.298 63.8426 235.694 62.8687 235.372L61.7259 234.994C61.1625 234.809 60.7762 234.447 60.7762 233.803C60.7762 233.159 61.2913 232.475 62.3858 232.475C63.1263 232.475 63.7621 232.837 64.1806 233.256L64.8004 232.628C64.2048 232.032 63.3919 231.63 62.3858 231.63C60.591 231.63 59.7701 232.813 59.7701 233.803C59.7701 234.962 60.4784 235.582 61.3798 235.879L62.5146 236.258C63.247 236.499 63.7943 236.926 63.7943 237.626C63.7943 238.511 63.1585 239.155 62.1444 239.155C61.3557 239.155 60.6957 238.841 60.2289 238.374L59.6091 238.994C60.092 239.477 60.9613 240 62.1444 240C63.7702 240 64.8004 239.034 64.8004 237.626Z" fill="#012169"/>
<path d="M72.3142 231.791H71.3484V239.839H72.3142V231.791Z" fill="#012169"/>
<path d="M87.9333 231.791H86.4122L84.1104 238.696L81.8085 231.791H80.2874V239.839H81.2532V232.934L83.555 239.839H84.6657L86.9675 232.934V239.839H87.9333V231.791Z" fill="#012169"/>
<path d="M100.828 234.068C100.828 234.873 100.305 235.493 99.2584 235.493H97.7292V232.636H99.2584C100.305 232.636 100.828 233.264 100.828 234.068ZM101.834 234.06C101.834 232.773 100.868 231.791 99.2584 231.791H96.7634V239.839H97.7292V236.338H99.2584C100.868 236.338 101.834 235.412 101.834 234.06Z" fill="#012169"/>
<path d="M113.1 238.994H109.88V231.791H108.915V239.839H113.1V238.994Z" fill="#012169"/>
<path d="M123.724 238.994H120.505V236.177H123.564V235.332H120.505V232.636H123.644V231.791H119.539V239.839H123.724V238.994Z" fill="#012169"/>
<path d="M135.565 237.626C135.565 236.298 134.608 235.694 133.634 235.372L132.491 234.994C131.928 234.809 131.541 234.447 131.541 233.803C131.541 233.159 132.056 232.475 133.151 232.475C133.891 232.475 134.527 232.837 134.946 233.256L135.565 232.628C134.97 232.032 134.157 231.63 133.151 231.63C131.356 231.63 130.535 232.813 130.535 233.803C130.535 234.962 131.244 235.582 132.145 235.879L133.28 236.258C134.012 236.499 134.559 236.926 134.559 237.626C134.559 238.511 133.924 239.155 132.91 239.155C132.121 239.155 131.461 238.841 130.994 238.374L130.374 238.994C130.857 239.477 131.726 240 132.91 240C134.535 240 135.565 239.034 135.565 237.626Z" fill="#012169"/>
<path d="M154.237 234.068C154.237 234.873 153.714 235.493 152.667 235.493H151.138V232.636H152.667C153.714 232.636 154.237 233.264 154.237 234.068ZM155.243 234.06C155.243 232.773 154.277 231.791 152.667 231.791H150.172V239.839H151.138V236.338H152.667C154.277 236.338 155.243 235.412 155.243 234.06Z" fill="#012169"/>
<path d="M163.562 236.942L164.987 232.95L166.411 236.942H163.562ZM165.51 231.791H164.464L161.486 239.839H162.532L163.264 237.787H166.709L167.441 239.839H168.488L165.51 231.791Z" fill="#012169"/>
<path d="M179.889 233.923C179.889 234.809 179.205 235.332 178.239 235.332H176.79V232.636H178.505C179.567 232.636 179.889 233.167 179.889 233.923ZM180.629 236.917C180.501 236.282 180.138 235.791 179.47 235.718C180.307 235.477 180.895 234.704 180.895 233.771C180.895 232.676 180.13 231.791 178.521 231.791H175.824V239.839H176.79V236.177H178.569C179.173 236.177 179.535 236.539 179.639 237.078L180.187 239.839H181.217L180.629 236.917Z" fill="#012169"/>
<path d="M189.718 236.942L191.142 232.95L192.567 236.942H189.718ZM191.665 231.791H190.619L187.641 239.839H188.687L189.42 237.787H192.865L193.597 239.839H194.643L191.665 231.791Z" fill="#012169"/>
<path d="M209.224 231.791H208.258V239.839H209.224V231.791Z" fill="#012169"/>
<path d="M224.843 231.791H223.322L221.02 238.696L218.718 231.791H217.197V239.839H218.163V232.934L220.464 239.839H221.575L223.877 232.934V239.839H224.843V231.791Z" fill="#012169"/>
<path d="M239.525 235.815C239.525 237.827 238.358 239.115 236.95 239.115C235.541 239.115 234.374 237.827 234.374 235.815C234.374 233.803 235.541 232.515 236.95 232.515C238.358 232.515 239.525 233.803 239.525 235.815ZM240.531 235.815C240.531 233.4 239.042 231.67 236.95 231.67C234.857 231.67 233.368 233.4 233.368 235.815C233.368 238.229 234.857 239.96 236.95 239.96C239.042 239.96 240.531 238.229 240.531 235.815Z" fill="#012169"/>
<path d="M252.875 237.505C252.875 238.463 252.312 238.994 251.145 238.994H249.535V236.177H251.145C252.272 236.177 252.875 236.708 252.875 237.505ZM252.634 233.923C252.634 234.809 251.95 235.332 250.984 235.332H249.535V232.636H251.249C252.312 232.636 252.634 233.167 252.634 233.923ZM253.881 237.545C253.881 236.539 253.06 235.767 251.869 235.734C252.948 235.581 253.64 234.769 253.64 233.771C253.64 232.676 252.875 231.791 251.266 231.791H248.569V239.839H251.145C252.996 239.839 253.881 238.954 253.881 237.545Z" fill="#012169"/>
<path d="M261.534 231.791H260.569V239.839H261.534V231.791Z" fill="#012169"/>
<path d="M272.97 238.994H269.751V231.791H268.785V239.839H272.97V238.994Z" fill="#012169"/>
<path d="M279.703 231.791H278.738V239.839H279.703V231.791Z" fill="#012169"/>
<path d="M288.192 236.942L289.617 232.95L291.042 236.942H288.192ZM290.14 231.791H289.094L286.116 239.839H287.162L287.895 237.787H291.339L292.072 239.839H293.118L290.14 231.791ZM289.617 229.577L288.691 231.428H289.384L290.704 229.577H289.617Z" fill="#012169"/>
<path d="M304.519 233.923C304.519 234.809 303.835 235.332 302.869 235.332H301.421V232.636H303.135C304.197 232.636 304.519 233.167 304.519 233.923ZM305.26 236.917C305.131 236.282 304.769 235.791 304.101 235.718C304.938 235.477 305.525 234.704 305.525 233.771C305.525 232.676 304.761 231.791 303.151 231.791H300.455V239.839H301.421V236.177H303.199C303.803 236.177 304.165 236.539 304.27 237.078L304.817 239.839H305.847L305.26 236.917Z" fill="#012169"/>
<path d="M313.403 231.791H312.437V239.839H313.403V231.791Z" fill="#012169"/>
<path d="M321.892 236.942L323.317 232.95L324.741 236.942H321.892ZM323.84 231.791H322.794L319.816 239.839H320.862L321.594 237.787H325.039L325.771 239.839H326.818L323.84 231.791Z" fill="#012169"/>
<path d="M338.391 237.626C338.391 236.298 337.433 235.694 336.459 235.372L335.316 234.994C334.753 234.809 334.367 234.447 334.367 233.803C334.367 233.159 334.882 232.475 335.976 232.475C336.717 232.475 337.353 232.837 337.771 233.256L338.391 232.628C337.795 232.032 336.982 231.63 335.976 231.63C334.182 231.63 333.361 232.813 333.361 233.803C333.361 234.962 334.069 235.582 334.97 235.879L336.105 236.258C336.838 236.499 337.385 236.926 337.385 237.626C337.385 238.511 336.749 239.155 335.735 239.155C334.946 239.155 334.286 238.841 333.819 238.374L333.2 238.994C333.683 239.477 334.552 240 335.735 240C337.361 240 338.391 239.034 338.391 237.626Z" fill="#012169"/>
<path d="M24.1981 212.884H30.558L15.7309 184.359L0.941406 212.884H6.96256L8.76891 209.121H22.3542L24.1981 212.884ZM15.5051 195.121L19.7952 203.852H11.2903L15.5051 195.121Z" fill="#012169"/>
<path d="M50.6348 212.884V190.116H58.0107V184.848H37.8774V190.116H44.8018V212.884H50.6348Z" fill="#012169"/>
<path d="M90.5438 212.884V207.615H78.9907V200.616H89.5278V195.347H78.9907V190.116H88.0601V184.848H73.1577V212.884H90.5438Z" fill="#012169"/>
<path d="M126.426 201.067L106.481 184.321V212.884H112.314V196.777L132.259 213.373V184.848H126.426V201.067Z" fill="#012169"/>
<path d="M149.363 184.848V212.884H160.766C168.819 212.884 175.405 206.9 175.405 198.847C175.405 190.869 168.819 184.848 160.728 184.848H149.363ZM155.196 207.615V190.116H160.728C165.62 190.116 169.421 193.767 169.421 198.847C169.421 203.89 165.62 207.615 160.766 207.615H155.196Z" fill="#012169"/>
<path d="M197.175 184.848H191.342V212.884H197.175V184.848Z" fill="#012169"/>
<path d="M229.219 195.686L214.279 184.359V212.884H220.112V195.987L229.219 202.573L238.326 195.987V212.884H244.159V184.359L229.219 195.686Z" fill="#012169"/>
<path d="M278.649 212.884V207.615H267.096V200.616H277.633V195.347H267.096V190.116H276.165V184.848H261.263V212.884H278.649Z" fill="#012169"/>
<path d="M314.531 201.067L294.586 184.321V212.884H300.419V196.777L320.364 213.373V184.848H314.531V201.067Z" fill="#012169"/>
<path d="M348.269 212.884V190.116H355.645V184.848H335.511V190.116H342.436V212.884H348.269Z" fill="#012169"/>
<path d="M382.57 213.373C390.586 213.373 397.059 206.863 397.059 198.847C397.059 190.831 390.586 184.359 382.533 184.359C374.517 184.359 368.044 190.831 368.044 198.847C368.044 206.863 374.517 213.373 382.57 213.373ZM382.533 189.928C387.274 189.928 391.075 193.917 391.075 198.847C391.075 203.852 387.312 207.766 382.57 207.766C377.753 207.766 374.028 203.852 374.028 198.847C374.028 193.917 377.753 189.928 382.533 189.928Z" fill="#012169"/>
<path fill-rule="evenodd" clip-rule="evenodd" d="M125.508 144.757H129.962V75.7192H196.539L196.495 145.127L200.949 145.13L201.043 0H125.508V144.757ZM196.586 4.45407L196.565 35.6326H129.962V4.45407H196.586ZM129.962 71.2651V40.0866H196.563L196.542 71.2651H129.962ZM234.632 46.5387L209.301 71.9191L212.454 75.0652L234.633 52.8427L268.038 86.2913V144.757H272.492V84.448L234.632 46.5387ZM149.263 144.757H153.717V111.352H173.018V144.757H177.472V106.898H149.263V144.757ZM220.528 144.757H224.982V111.352H244.283V144.757H248.737V106.898H220.528V144.757Z" fill="#012169"/>
</svg>
